<svg width="100%" height="100%" viewBox="0 0 24 24" fill="none" xmlns="http://www.w3.org/2000/svg">
<g clip-path="url(#clip0_41_262)">
<path fill-rule="evenodd" clip-rule="evenodd" d="M15.5 1C15.5 0.447715 15.0523 0 14.5 0C13.9477 0 13.5 0.447715 13.5 1V2H7.5V1C7.5 0.447715 7.05228 0 6.5 0C5.94772 0 5.5 0.447715 5.5 1V2H3.5C1.84315 2 0.5 3.34315 0.5 5V9V19C0.5 20.6569 1.84315 22 3.5 22H14.4996C15.4118 23.2144 16.8642 24 18.5 24C21.2614 24 23.5 21.7614 23.5 19C23.5 16.9497 22.2659 15.1876 20.5 14.416V9V5C20.5 3.34315 19.1569 2 17.5 2H15.5V1ZM18.5 10V14C15.7386 14 13.5 16.2386 13.5 19C13.5 19.3425 13.5344 19.6769 13.6 20H3.5C2.94772 20 2.5 19.5523 2.5 19V10H18.5ZM18.5 8V5C18.5 4.44772 18.0523 4 17.5 4H15.5V5C15.5 5.55228 15.0523 6 14.5 6C13.9477 6 13.5 5.55228 13.5 5V4H7.5V5C7.5 5.55228 7.05228 6 6.5 6C5.94772 6 5.5 5.55228 5.5 5V4H3.5C2.94772 4 2.5 4.44772 2.5 5V8H18.5ZM18.5 16.25C18.9142 16.25 19.25 16.5858 19.25 17V18.25H20.5C20.9142 18.25 21.25 18.5858 21.25 19C21.25 19.4142 20.9142 19.75 20.5 19.75H19.25V21C19.25 21.4142 18.9142 21.75 18.5 21.75C18.0858 21.75 17.75 21.4142 17.75 21V19.75H16.5C16.0858 19.75 15.75 19.4142 15.75 19C15.75 18.5858 16.0858 18.25 16.5 18.25H17.75V17C17.75 16.5858 18.0858 16.25 18.5 16.25Z" fill="#363636"/>
</g>
<defs>
<clipPath id="clip0_41_262">
<rect width="100%" height="100%" fill="white"/>
</clipPath>
</defs>
</svg>
