<svg width="100%" height="100%" viewBox="0 0 24 24" fill="none" xmlns="http://www.w3.org/2000/svg">
<path fill-rule="evenodd" clip-rule="evenodd" d="M8.67142 4.33397C8.81052 4.12533 9.04469 4 9.29545 4H14.2045C14.4553 4 14.6895 4.12533 14.8286 4.33397L16.2423 6.45455H19.1136C19.7465 6.45455 20.3535 6.70597 20.8011 7.1535C21.2486 7.60103 21.5 8.20801 21.5 8.84091V17.8409C21.5 18.4738 21.2486 19.0808 20.8011 19.5283C20.3535 19.9759 19.7465 20.2273 19.1136 20.2273H4.38636C3.75346 20.2273 3.14648 19.9759 2.69895 19.5283C2.25142 19.0808 2 18.4738 2 17.8409V8.84091C2 8.20801 2.25142 7.60103 2.69895 7.1535C3.14648 6.70597 3.75346 6.45455 4.38636 6.45455H7.2577L8.67142 4.33397ZM9.69684 5.5L8.28313 7.62057C8.14403 7.82922 7.90986 7.95455 7.65909 7.95455H4.38636C4.15129 7.95455 3.92584 8.04793 3.75961 8.21416C3.59338 8.38038 3.5 8.60583 3.5 8.84091V17.8409C3.5 18.076 3.59338 18.3014 3.75961 18.4677C3.92584 18.6339 4.15129 18.7273 4.38636 18.7273H19.1136C19.3487 18.7273 19.5742 18.6339 19.7404 18.4677C19.9066 18.3014 20 18.076 20 17.8409V8.84091C20 8.60583 19.9066 8.38038 19.7404 8.21416C19.5742 8.04793 19.3487 7.95455 19.1136 7.95455H15.8409C15.5901 7.95455 15.356 7.82922 15.2169 7.62057L13.8032 5.5H9.69684Z" fill="#767676"/>
<path fill-rule="evenodd" clip-rule="evenodd" d="M11.7512 10.4082C10.358 10.4082 9.22852 11.5377 9.22852 12.9309C9.22852 14.3242 10.358 15.4537 11.7512 15.4537C13.1445 15.4537 14.274 14.3242 14.274 12.9309C14.274 11.5377 13.1445 10.4082 11.7512 10.4082ZM7.72852 12.9309C7.72852 10.7092 9.52955 8.9082 11.7512 8.9082C13.9729 8.9082 15.774 10.7092 15.774 12.9309C15.774 15.1526 13.9729 16.9537 11.7512 16.9537C9.52955 16.9537 7.72852 15.1526 7.72852 12.9309Z" fill="#767676"/>
</svg>
