<svg width="100%" height="100%" viewBox="0 0 24 24" fill="none" xmlns="http://www.w3.org/2000/svg">
<g clip-path="url(#clip0_93_1327)">
<path fill-rule="evenodd" clip-rule="evenodd" d="M9.57104 16.6568L12 20.6504L14.429 16.6568L15.4781 16.6327C19.0926 16.5497 22 13.3439 22 9.40205C22 5.40773 19.0152 2.1697 15.3333 2.1697H8.66667C4.98477 2.1697 2 5.40773 2 9.40205C2 13.3439 4.90736 16.5497 8.52195 16.6327L9.57104 16.6568ZM0 9.40205C0 4.20944 3.8802 0 8.66667 0H15.3333C20.1198 0 24 4.20944 24 9.40205C24 14.5268 20.2205 18.694 15.5204 18.8019L12.5565 23.6751C12.293 24.1083 11.707 24.1083 11.4436 23.6751L8.47961 18.8019C3.77951 18.694 0 14.5268 0 9.40205Z" fill="#A8A8A8"/>
</g>
<defs>
<clipPath id="clip0_93_1327">
<rect width="100%" height="100%" fill="white"/>
</clipPath>
</defs>
</svg>
