<svg width="100%" height="100%" viewBox="0 0 24 24" fill="none" xmlns="http://www.w3.org/2000/svg">
<path fill-rule="evenodd" clip-rule="evenodd" d="M6 12C6 10.8954 6.89543 10 8 10C9.10457 10 10 10.8954 10 12C10 13.1046 9.10457 14 8 14C6.89543 14 6 13.1046 6 12Z" fill="#A8A8A8"/>
<path fill-rule="evenodd" clip-rule="evenodd" d="M13 12C13 10.8954 13.8954 10 15 10C16.1046 10 17 10.8954 17 12C17 13.1046 16.1046 14 15 14C13.8954 14 13 13.1046 13 12Z" fill="#A8A8A8"/>
<path fill-rule="evenodd" clip-rule="evenodd" d="M6 5C6 3.89543 6.89543 3 8 3C9.10457 3 10 3.89543 10 5C10 6.10457 9.10457 7 8 7C6.89543 7 6 6.10457 6 5Z" fill="#A8A8A8"/>
<path fill-rule="evenodd" clip-rule="evenodd" d="M13 5C13 3.89543 13.8954 3 15 3C16.1046 3 17 3.89543 17 5C17 6.10457 16.1046 7 15 7C13.8954 7 13 6.10457 13 5Z" fill="#A8A8A8"/>
<path fill-rule="evenodd" clip-rule="evenodd" d="M6 19C6 17.8954 6.89543 17 8 17C9.10457 17 10 17.8954 10 19C10 20.1046 9.10457 21 8 21C6.89543 21 6 20.1046 6 19Z" fill="#A8A8A8"/>
<path fill-rule="evenodd" clip-rule="evenodd" d="M13 19C13 17.8954 13.8954 17 15 17C16.1046 17 17 17.8954 17 19C17 20.1046 16.1046 21 15 21C13.8954 21 13 20.1046 13 19Z" fill="#A8A8A8"/>
</svg>
