<svg width="100%" height="100%" viewBox="0 0 24 24" fill="none" xmlns="http://www.w3.org/2000/svg">
<path fill-rule="evenodd" clip-rule="evenodd" d="M22 8C22 8.55228 21.5523 9 21 9L3 9C2.44772 9 2 8.55228 2 8C2 7.44771 2.44772 7 3 7L21 7C21.5523 7 22 7.44772 22 8Z" fill="#505050"/>
<path fill-rule="evenodd" clip-rule="evenodd" d="M2 16C2 15.4477 2.44772 15 3 15L21 15C21.5523 15 22 15.4477 22 16C22 16.5523 21.5523 17 21 17L3 17C2.44772 17 2 16.5523 2 16Z" fill="#505050"/>
<path d="M11 8C11 9.10457 10.1046 10 9 10C7.89543 10 7 9.10457 7 8C7 6.89543 7.89543 6 9 6C10.1046 6 11 6.89543 11 8Z" fill="white"/>
<path fill-rule="evenodd" clip-rule="evenodd" d="M9 7C8.44772 7 8 7.44772 8 8C8 8.55228 8.44772 9 9 9C9.55228 9 10 8.55228 10 8C10 7.44772 9.55228 7 9 7ZM6 8C6 6.34315 7.34315 5 9 5C10.6569 5 12 6.34315 12 8C12 9.65685 10.6569 11 9 11C7.34315 11 6 9.65685 6 8Z" fill="#505050"/>
<path d="M13 16C13 14.8954 13.8954 14 15 14C16.1046 14 17 14.8954 17 16C17 17.1046 16.1046 18 15 18C13.8954 18 13 17.1046 13 16Z" fill="white"/>
<path fill-rule="evenodd" clip-rule="evenodd" d="M15 17C15.5523 17 16 16.5523 16 16C16 15.4477 15.5523 15 15 15C14.4477 15 14 15.4477 14 16C14 16.5523 14.4477 17 15 17ZM18 16C18 17.6569 16.6569 19 15 19C13.3431 19 12 17.6569 12 16C12 14.3431 13.3431 13 15 13C16.6569 13 18 14.3431 18 16Z" fill="#505050"/>
</svg>
