<svg width="100%" height="100%" viewBox="0 0 24 24" fill="none" xmlns="http://www.w3.org/2000/svg">
<path fill-rule="evenodd" clip-rule="evenodd" d="M16.9513 2C16.0975 2 15.252 2.16823 14.4632 2.49507C13.6744 2.82189 12.9577 3.30106 12.3541 3.90488L12.0013 4.25761L11.6484 3.90472C10.4292 2.68549 8.77559 2.00053 7.05134 2.00053C5.32709 2.00053 3.67346 2.68549 2.45423 3.90472C1.235 5.12395 0.550049 6.77758 0.550049 8.50183C0.550049 10.2261 1.235 11.8797 2.45423 13.0989L11.2942 21.9389C11.6848 22.3295 12.3179 22.3295 12.7084 21.9389L21.5484 13.0989C22.1523 12.4953 22.6313 11.7787 22.9581 10.99C23.2849 10.2012 23.4532 9.35568 23.4532 8.50183C23.4532 7.64797 23.2849 6.80249 22.9581 6.01368C22.6313 5.22501 22.152 4.5081 21.5483 3.90455C20.9447 3.30081 20.2282 2.82186 19.4395 2.49507C18.6507 2.16823 17.8052 2 16.9513 2Z" fill="#FF6060"/>
</svg>
