<svg width="100%" height="100%" viewBox="0 0 24 24" fill="none" xmlns="http://www.w3.org/2000/svg">
<path fill-rule="evenodd" clip-rule="evenodd" d="M16.9927 2C16.1447 2 15.305 2.16728 14.5216 2.49228C13.7382 2.81727 13.0264 3.29366 12.4269 3.89413L11.9998 4.32178L11.5725 3.89398C10.3616 2.68163 8.7193 2.00054 7.00685 2.00054C5.2944 2.00054 3.65209 2.68163 2.4412 3.89398C1.23032 5.10633 0.550049 6.75064 0.550049 8.46516C0.550049 10.1797 1.23032 11.824 2.4412 13.0363L11.3579 21.9638C11.7124 22.3187 12.2872 22.3187 12.6417 21.9638L21.5583 13.0364C22.158 12.4362 22.6338 11.7236 22.9584 10.9393C23.283 10.1549 23.45 9.31419 23.45 8.46516C23.45 7.61613 23.283 6.77542 22.9584 5.99105C22.6338 5.20678 22.1581 4.49421 21.5584 3.89404C20.9589 3.29359 20.2472 2.81727 19.4638 2.49228C18.6804 2.16728 17.8407 2 16.9927 2ZM15.2166 4.17163C15.7797 3.93804 16.3832 3.81781 16.9927 3.81781C17.6022 3.81781 18.2057 3.93804 18.7688 4.17163C19.3319 4.40522 19.8438 4.7479 20.2747 5.17952C20.7058 5.61092 21.0477 6.12313 21.281 6.6869C21.5144 7.25066 21.6344 7.85492 21.6344 8.46516C21.6344 9.0754 21.5144 9.67966 21.281 10.2434C21.0477 10.8072 20.7056 11.3195 20.2745 11.751L11.9998 20.0357L3.72503 11.751C2.85464 10.8795 2.36566 9.69757 2.36566 8.46516C2.36566 7.23275 2.85464 6.05081 3.72503 5.17937C4.59543 4.30792 5.77593 3.81835 7.00685 3.81835C8.23777 3.81835 9.41828 4.30792 10.2887 5.17937L11.3579 6.24985C11.7124 6.6048 12.2872 6.6048 12.6417 6.24985L13.711 5.17922C14.1419 4.74761 14.6535 4.40523 15.2166 4.17163Z" fill="#A8A8A8"/>
</svg>
