<svg width="100%" height="100%" viewBox="0 0 92 24" fill="none" xmlns="http://www.w3.org/2000/svg">
<path d="M83.0363 19.7148C82.0183 19.7148 81.3118 19.0918 80.9168 17.8459C80.5217 16.5848 80.3242 14.5564 80.3242 11.7607C80.3242 10.1957 80.3774 8.82066 80.4838 7.63553C80.5901 6.4352 80.8332 5.50077 81.2131 4.83224C81.6081 4.14851 82.2159 3.80664 83.0363 3.80664C83.6289 3.80664 84.0771 3.98137 84.381 4.33083C84.7001 4.6803 84.9204 5.1741 85.042 5.81225C85.1787 6.4504 85.2547 7.2101 85.2699 8.09135C85.2851 8.9726 85.2927 9.94502 85.2927 11.0086L85.361 10.963C86.1207 10.4464 86.8576 10.0058 87.5718 9.64114C88.2859 9.26129 88.9392 9.07136 89.5318 9.07136C89.9724 9.07136 90.3371 9.17772 90.6257 9.39043C90.9296 9.58796 91.1575 9.84626 91.3095 10.1653C91.4614 10.4692 91.5374 10.7807 91.5374 11.0998C91.5374 11.6771 91.3323 12.2013 90.922 12.6723C90.5118 13.1434 89.98 13.622 89.3267 14.1082C89.509 14.3361 89.6837 14.5868 89.8509 14.8603C90.0332 15.1186 90.2231 15.4073 90.4206 15.7263C90.6789 16.1214 90.8916 16.5316 91.0588 16.957C91.2259 17.3825 91.3095 17.7699 91.3095 18.1194C91.3095 18.5296 91.2107 18.8563 91.0132 19.0994C90.8157 19.3273 90.5726 19.4944 90.2839 19.6008C89.9952 19.692 89.7065 19.73 89.4178 19.7148C88.9772 19.6844 88.5366 19.4717 88.0959 19.0766C87.6553 18.6816 87.2299 18.2181 86.8196 17.6864C86.6373 17.4584 86.455 17.2229 86.2727 16.9798C86.1055 16.7215 85.946 16.4708 85.7941 16.2277C85.5661 16.3189 85.3458 16.3949 85.1331 16.4556C85.0268 17.58 84.814 18.4081 84.495 18.9399C84.1911 19.4565 83.7049 19.7148 83.0363 19.7148Z" fill="#4F80FF"/>
<path d="M74.6238 19.7378C73.6514 19.7226 72.7398 19.4871 71.8889 19.0313C71.038 18.5603 70.3467 17.9145 69.8149 17.0941C69.2983 16.2736 69.04 15.3467 69.04 14.3135C69.04 13.2044 69.2983 12.2624 69.8149 11.4875C70.3467 10.6974 71.0304 10.0972 71.8661 9.68698C72.717 9.26154 73.6134 9.04883 74.5555 9.04883C75.5279 9.04883 76.3787 9.23875 77.108 9.6186C77.8374 9.98326 78.3995 10.4619 78.7946 11.0544C79.2048 11.6318 79.4099 12.232 79.4099 12.8549C79.4099 13.3715 79.2504 13.7818 78.9313 14.0856C78.6275 14.3743 78.1412 14.5187 77.4727 14.5187C77.108 14.5187 76.827 14.4503 76.6294 14.3135C76.4471 14.1616 76.2876 13.9945 76.1508 13.8121C76.0293 13.6298 75.8773 13.4703 75.695 13.3335C75.5279 13.1816 75.2772 13.1056 74.9429 13.1056C74.5479 13.1056 74.1984 13.2424 73.8945 13.5159C73.6058 13.7894 73.4615 14.154 73.4615 14.6098C73.4615 15.0808 73.6058 15.4531 73.8945 15.7266C74.1832 15.9849 74.5327 16.114 74.9429 16.114C75.262 16.114 75.5051 16.0685 75.6722 15.9773C75.8394 15.8709 75.9837 15.7494 76.1052 15.6126C76.242 15.4759 76.4091 15.3619 76.6067 15.2708C76.8042 15.1644 77.0929 15.1112 77.4727 15.1112C78.1412 15.1112 78.6275 15.2936 78.9313 15.6582C79.2504 16.0077 79.4099 16.3799 79.4099 16.775C79.4099 17.2764 79.2124 17.755 78.8174 18.2108C78.4223 18.6666 77.8678 19.0389 77.1536 19.3276C76.4395 19.6011 75.5962 19.7378 74.6238 19.7378Z" fill="#4F80FF"/>
<path d="M62.6301 19.7832C61.5057 19.7984 60.5181 19.5705 59.6672 19.0995C58.8316 18.6133 58.1706 17.9599 57.6844 17.1395C57.2134 16.3038 56.9627 15.3845 56.9323 14.3817C56.9171 13.3486 57.1526 12.4369 57.6388 11.6468C58.1251 10.8415 58.8012 10.2034 59.6672 9.73238C60.5333 9.26136 61.5209 9.02586 62.6301 9.02586C63.724 9.01066 64.6889 9.23858 65.5245 9.70959C66.3754 10.1806 67.0515 10.8188 67.5529 11.624C68.0543 12.4293 68.3202 13.3486 68.3506 14.3817C68.3658 15.3694 68.1303 16.2734 67.6441 17.0939C67.1579 17.8992 66.4818 18.5449 65.6157 19.0311C64.7496 19.5021 63.7544 19.7528 62.6301 19.7832ZM62.6985 16.4557C63.1087 16.4557 63.4657 16.2962 63.7696 15.9771C64.0735 15.658 64.2254 15.2858 64.2254 14.8604C64.2254 14.4349 64.0735 14.0703 63.7696 13.7664C63.4657 13.4473 63.1087 13.2878 62.6985 13.2878C62.2882 13.2878 61.9312 13.4473 61.6273 13.7664C61.3234 14.0703 61.1715 14.4349 61.1715 14.8604C61.1715 15.2858 61.3234 15.658 61.6273 15.9771C61.9312 16.2962 62.2882 16.4557 62.6985 16.4557Z" fill="#4F80FF"/>
<path d="M53.5227 19.7148C52.7479 19.7148 52.1705 19.4261 51.7906 18.8487C51.4108 18.2561 51.1601 17.3749 51.0385 16.2049C50.917 15.0198 50.8562 13.5384 50.8562 11.7607C50.8562 10.5908 50.8714 9.51959 50.9018 8.54717C50.9474 7.57475 51.0537 6.73908 51.2209 6.04016C51.388 5.32604 51.6539 4.77906 52.0185 4.39921C52.3832 4.00416 52.8922 3.80664 53.5455 3.80664C54.1989 3.80664 54.7079 4.00416 55.0725 4.39921C55.4372 4.77906 55.7031 5.32604 55.8702 6.04016C56.0373 6.73908 56.1361 7.57475 56.1665 8.54717C56.2121 9.51959 56.2349 10.5908 56.2349 11.7607C56.2349 14.4348 56.045 16.4329 55.6651 17.7547C55.3004 19.0614 54.5863 19.7148 53.5227 19.7148Z" fill="#4F80FF"/>
<path d="M44.2878 19.7604C43.1939 19.7604 42.2746 19.6085 41.5301 19.3046C40.7856 18.9855 40.1703 18.5753 39.6841 18.0739C39.213 17.5725 38.8408 17.0255 38.5673 16.4329C38.309 15.8404 38.1191 15.2554 37.9975 14.678C37.876 14.1007 37.8 13.5765 37.7696 13.1055C37.7544 12.6344 37.7468 12.285 37.7468 12.0571C37.7468 11.3581 37.7848 10.6288 37.8608 9.86913C37.9368 9.10943 38.0583 8.37252 38.2254 7.65841C38.3926 6.92909 38.6129 6.27575 38.8864 5.69838C39.1751 5.12101 39.5169 4.65759 39.912 4.30813C40.307 3.95867 40.778 3.78394 41.325 3.78394C41.8112 3.78394 42.2518 3.94347 42.6469 4.26255C43.0571 4.58162 43.2622 5.07543 43.2622 5.74396C43.2622 6.3973 43.1559 7.04305 42.9432 7.6812C42.7457 8.30415 42.6165 8.9423 42.5557 9.59564C42.9052 9.39812 43.2774 9.26137 43.6725 9.1854C44.0675 9.09424 44.455 9.04866 44.8348 9.04866C45.6401 9.04866 46.415 9.23858 47.1595 9.61843C47.904 9.98309 48.5118 10.5453 48.9828 11.305C49.469 12.0647 49.7121 13.0371 49.7121 14.2222C49.7121 15.149 49.4918 16.0379 49.0512 16.8888C48.6257 17.7396 48.0028 18.431 47.1823 18.9627C46.377 19.4945 45.4122 19.7604 44.2878 19.7604ZM44.1511 16.1594C44.5613 16.1594 44.9184 16.0075 45.2223 15.7036C45.5413 15.3846 45.7009 15.0123 45.7009 14.5869C45.7009 14.1614 45.5413 13.7892 45.2223 13.4701C44.9184 13.151 44.5613 12.9915 44.1511 12.9915C43.7409 12.9915 43.3838 13.151 43.0799 13.4701C42.776 13.7892 42.6241 14.1614 42.6241 14.5869C42.6241 15.0123 42.776 15.3846 43.0799 15.7036C43.3838 16.0075 43.7409 16.1594 44.1511 16.1594Z" fill="#4F80FF"/>
<path d="M30.4537 19.7606C29.7092 19.7606 29.0255 19.6466 28.4025 19.4187C27.7947 19.1908 27.3085 18.849 26.9439 18.3931C26.5792 17.9221 26.3969 17.3296 26.3969 16.6154C26.3969 16.0077 26.5792 15.4911 26.9439 15.0657C27.3085 14.6402 27.7947 14.3135 28.4025 14.0856C29.0255 13.8577 29.7092 13.7438 30.4537 13.7438C30.8943 13.7438 31.297 13.7818 31.6616 13.8577C32.0263 13.9185 32.277 13.9945 32.4137 14.0856C32.4137 13.7362 32.2694 13.4323 31.9807 13.174C31.692 12.9005 31.1906 12.7638 30.4765 12.7638C30.1422 12.7638 29.8763 12.7941 29.6788 12.8549C29.4965 12.9005 29.3293 12.9613 29.1774 13.0373C29.0255 13.1132 28.8507 13.1816 28.6532 13.2424C28.4709 13.288 28.2202 13.3107 27.9011 13.3107C27.4301 13.3107 27.0502 13.1892 26.7616 12.9461C26.4881 12.6878 26.3513 12.3003 26.3513 11.7837C26.3513 11.3127 26.4805 10.9101 26.7388 10.5758C27.0123 10.2264 27.3617 9.93768 27.7872 9.70977C28.2126 9.48186 28.6684 9.31472 29.1546 9.20836C29.656 9.10201 30.1346 9.04883 30.5904 9.04883C31.9427 9.04883 33.0443 9.29953 33.8951 9.80093C34.746 10.2871 35.3766 10.9253 35.7868 11.7154C36.197 12.5055 36.4022 13.3639 36.4022 14.2908C36.4022 14.8074 36.3566 15.286 36.2654 15.7266C36.1894 16.1672 36.0831 16.5091 35.9463 16.7522C36.159 16.9345 36.3186 17.1472 36.4249 17.3903C36.5465 17.6334 36.6073 17.8841 36.6073 18.1424C36.6073 18.5679 36.4629 18.9477 36.1742 19.282C35.9007 19.6011 35.5057 19.7606 34.9891 19.7606C34.5941 19.7606 34.2826 19.6998 34.0547 19.5783C33.8268 19.4567 33.5989 19.2972 33.3709 19.0997C33.0063 19.3124 32.6036 19.4795 32.163 19.6011C31.7224 19.7074 31.1526 19.7606 30.4537 19.7606ZM30.9095 17.4587C31.259 17.4587 31.5173 17.3903 31.6844 17.2536C31.8667 17.1016 31.9579 16.9345 31.9579 16.7522C31.9579 16.5699 31.8667 16.4103 31.6844 16.2736C31.5173 16.1216 31.259 16.0457 30.9095 16.0457C30.5753 16.0457 30.317 16.1216 30.1346 16.2736C29.9523 16.4103 29.8611 16.5699 29.8611 16.7522C29.8611 16.9345 29.9523 17.1016 30.1346 17.2536C30.317 17.3903 30.5753 17.4587 30.9095 17.4587Z" fill="#4F80FF"/>
<path d="M18.04 19.7602C17.5234 19.7602 17.0979 19.5931 16.7637 19.2588C16.4446 18.9094 16.2015 18.446 16.0343 17.8686C15.8672 17.2912 15.7533 16.6303 15.6925 15.8858C15.6317 15.1413 15.6013 14.374 15.6013 13.5839C15.6013 13.0521 15.6089 12.5127 15.6241 11.9657C15.6545 11.4035 15.7305 10.8869 15.852 10.4159C15.9888 9.94491 16.2091 9.56506 16.513 9.27638C16.832 8.9725 17.2803 8.82056 17.8576 8.82056C18.2679 8.82056 18.6401 8.91932 18.9744 9.11684C19.3087 9.29917 19.5214 9.58026 19.6125 9.96011C19.962 9.64103 20.4026 9.41312 20.9344 9.27638C21.4814 9.12444 22.0436 9.04847 22.6209 9.04847C23.1072 9.04847 23.601 9.17002 24.1024 9.41312C24.6038 9.64103 25.0292 9.96011 25.3787 10.3703C25.7281 10.7806 25.9028 11.244 25.9028 11.7606C25.9028 12.2012 25.7357 12.6191 25.4014 13.0141C25.0824 13.4091 24.6266 13.6067 24.034 13.6067C23.7757 13.6067 23.563 13.5763 23.3958 13.5155C23.2287 13.4395 23.0692 13.3712 22.9172 13.3104C22.7653 13.2496 22.583 13.2192 22.3702 13.2192C21.8081 13.2192 21.2915 13.4471 20.8205 13.9029C20.3646 14.3436 20.1367 14.9437 20.1367 15.7034C20.1367 16.0985 20.1215 16.5315 20.0911 17.0025C20.076 17.4583 20.0076 17.899 19.886 18.3244C19.7797 18.7498 19.5821 19.0993 19.2935 19.3728C19.0048 19.6311 18.5869 19.7602 18.04 19.7602Z" fill="#4F80FF"/>
<path d="M8.37675 19.7147C7.61705 19.7147 7.03968 19.464 6.64464 18.9626C6.24959 18.4612 5.9761 17.7167 5.82416 16.7291C5.68741 15.7263 5.61904 14.488 5.61904 13.0142C5.61904 12.4824 5.62664 11.981 5.64183 11.51C5.65703 11.039 5.67222 10.5983 5.68741 10.1881C3.86413 10.0969 2.52706 9.83864 1.6762 9.41321C0.825334 8.98778 0.399902 8.25087 0.399902 7.20249C0.399902 5.8958 1.06084 5.01455 2.38272 4.55873C3.71979 4.10291 5.7254 3.875 8.39954 3.875C11.0889 3.875 13.1097 4.10291 14.4619 4.55873C15.8294 5.01455 16.5131 5.8958 16.5131 7.20249C16.5131 8.23568 16.0801 8.97259 15.214 9.41321C14.3632 9.83864 13.0337 10.0969 11.2256 10.1881C11.256 10.5983 11.2788 11.039 11.294 11.51C11.3092 11.981 11.3168 12.4824 11.3168 13.0142C11.3168 15.3389 11.1117 17.0406 10.7014 18.1194C10.2912 19.183 9.5163 19.7147 8.37675 19.7147Z" fill="#4F80FF"/>
</svg>
