<svg width="100%" height="100%" viewBox="0 0 24 24" fill="none" xmlns="http://www.w3.org/2000/svg">
<path fill-rule="evenodd" clip-rule="evenodd" d="M2.27199 15.2985C3.08644 14.4671 4.19106 14 5.34286 14H12.6571C13.8089 14 14.9136 14.4671 15.728 15.2985C16.5425 16.1299 17 17.2575 17 18.4333V20.3C17 20.6866 16.693 21 16.3143 21C15.9356 21 15.6286 20.6866 15.6286 20.3V18.4333C15.6286 17.6288 15.3155 16.8573 14.7583 16.2884C14.201 15.7196 13.4452 15.4 12.6571 15.4H5.34286C4.55479 15.4 3.79899 15.7196 3.24174 16.2884C2.68449 16.8573 2.37143 17.6288 2.37143 18.4333V20.3C2.37143 20.6866 2.06442 21 1.68571 21C1.307 21 1 20.6866 1 20.3V18.4333C1 17.2575 1.45755 16.1299 2.27199 15.2985Z" fill="#767676"/>
<path fill-rule="evenodd" clip-rule="evenodd" d="M2.0934 15.1235C2.95432 14.2447 4.12307 13.75 5.34286 13.75H12.6571C13.8769 13.75 15.0457 14.2447 15.9066 15.1235C16.7673 16.0022 17.25 17.1929 17.25 18.4333V20.3C17.25 20.8198 16.8359 21.25 16.3143 21.25C15.7927 21.25 15.3786 20.8198 15.3786 20.3V18.4333C15.3786 17.6935 15.0906 16.985 14.5797 16.4634C14.0689 15.942 13.3772 15.65 12.6571 15.65H5.34286C4.62277 15.65 3.93111 15.942 3.42033 16.4634C2.90938 16.985 2.62143 17.6935 2.62143 18.4333V20.3C2.62143 20.8198 2.20733 21.25 1.68571 21.25C1.1641 21.25 0.75 20.8198 0.75 20.3V18.4333C0.75 17.1929 1.23266 16.0022 2.0934 15.1235ZM5.34286 14.25C4.25905 14.25 3.21856 14.6895 2.45058 15.4734C1.68244 16.2576 1.25 17.3222 1.25 18.4333V20.3C1.25 20.5534 1.44991 20.75 1.68571 20.75C1.92152 20.75 2.12143 20.5534 2.12143 20.3V18.4333C2.12143 17.5642 2.4596 16.7296 3.06315 16.1135C3.66687 15.4972 4.4868 15.15 5.34286 15.15H12.6571C13.5132 15.15 14.3331 15.4972 14.9369 16.1135C15.5404 16.7296 15.8786 17.5642 15.8786 18.4333V20.3C15.8786 20.5534 16.0785 20.75 16.3143 20.75C16.5501 20.75 16.75 20.5534 16.75 20.3V18.4333C16.75 17.3222 16.3176 16.2576 15.5494 15.4734C14.7814 14.6895 13.741 14.25 12.6571 14.25H5.34286Z" fill="#767676"/>
<path fill-rule="evenodd" clip-rule="evenodd" d="M9.5 4.42105C7.79954 4.42105 6.42105 5.79954 6.42105 7.5C6.42105 9.20046 7.79954 10.5789 9.5 10.5789C11.2005 10.5789 12.5789 9.20046 12.5789 7.5C12.5789 5.79954 11.2005 4.42105 9.5 4.42105ZM5 7.5C5 5.01472 7.01472 3 9.5 3C11.9853 3 14 5.01472 14 7.5C14 9.98528 11.9853 12 9.5 12C7.01472 12 5 9.98528 5 7.5Z" fill="#767676"/>
<path fill-rule="evenodd" clip-rule="evenodd" d="M4.75 7.5C4.75 4.87665 6.87665 2.75 9.5 2.75C12.1234 2.75 14.25 4.87665 14.25 7.5C14.25 10.1234 12.1234 12.25 9.5 12.25C6.87665 12.25 4.75 10.1234 4.75 7.5ZM9.5 3.25C7.15279 3.25 5.25 5.15279 5.25 7.5C5.25 9.84721 7.15279 11.75 9.5 11.75C11.8472 11.75 13.75 9.84721 13.75 7.5C13.75 5.15279 11.8472 3.25 9.5 3.25ZM9.5 4.67105C7.93762 4.67105 6.67105 5.93762 6.67105 7.5C6.67105 9.06239 7.93762 10.3289 9.5 10.3289C11.0624 10.3289 12.3289 9.06239 12.3289 7.5C12.3289 5.93762 11.0624 4.67105 9.5 4.67105ZM6.17105 7.5C6.17105 5.66147 7.66147 4.17105 9.5 4.17105C11.3385 4.17105 12.8289 5.66147 12.8289 7.5C12.8289 9.33853 11.3385 10.8289 9.5 10.8289C7.66147 10.8289 6.17105 9.33853 6.17105 7.5Z" fill="#767676"/>
<path fill-rule="evenodd" clip-rule="evenodd" d="M18.0267 14.5344C18.1417 14.1535 18.5962 13.9244 19.0418 14.0228C20.174 14.2727 21.1771 14.8369 21.8935 15.627C22.6099 16.417 22.9991 17.388 23 18.3876L23 20.2877C23 20.6811 22.6269 21 22.1667 21C21.7065 21 21.3334 20.6811 21.3334 20.2877L21.3334 18.3887C21.3334 18.3886 21.3334 18.3888 21.3334 18.3887C21.3327 17.7048 21.0664 17.0403 20.5763 16.4998C20.0862 15.9593 19.3998 15.5732 18.6252 15.4022C18.1796 15.3039 17.9116 14.9153 18.0267 14.5344Z" fill="#767676"/>
<path fill-rule="evenodd" clip-rule="evenodd" d="M17.7875 14.4621C17.9483 13.9295 18.5516 13.6585 19.0958 13.7786C20.274 14.0387 21.3245 14.6272 22.0788 15.459C22.8339 16.2916 23.2492 17.3214 23.2501 18.3874L23.2501 20.2876C23.2501 20.8545 22.7269 21.25 22.1668 21.25C21.6067 21.25 21.0835 20.8545 21.0835 20.2876L21.0835 18.3889M21.5835 20.2876C21.5835 20.5076 21.8065 20.75 22.1668 20.75C22.5272 20.75 22.7501 20.5076 22.7501 20.2876L22.7501 18.3878C22.7493 17.4546 22.3862 16.5423 21.7084 15.7949C21.0299 15.0466 20.0743 14.5066 18.9881 14.2669C18.6411 14.1903 18.3353 14.3775 18.2661 14.6067C18.2032 14.8149 18.3393 15.083 18.6792 15.1581C19.4998 15.3392 20.2336 15.7495 20.7616 16.3318C21.2904 16.9149 21.5828 17.6385 21.5835 18.3887L21.5835 20.2876ZM21.0835 18.3889C21.0828 17.7715 20.8427 17.1655 20.3913 16.6677C19.939 16.1689 19.3001 15.8071 18.5714 15.6463C18.0201 15.5246 17.6202 15.0157 17.7875 14.4621" fill="#767676"/>
<path fill-rule="evenodd" clip-rule="evenodd" d="M15.021 3.54888C15.1121 3.15847 15.4747 2.92302 15.8307 3.02298C16.7373 3.27751 17.5409 3.85565 18.1147 4.66626C18.6885 5.47687 19 6.47384 19 7.5C19 8.52616 18.6885 9.52313 18.1147 10.3337C17.5409 11.1444 16.7373 11.7225 15.8307 11.977C15.4747 12.077 15.1121 11.8415 15.021 11.4511C14.9298 11.0607 15.1445 10.6632 15.5006 10.5632C16.1209 10.3891 16.6707 9.9935 17.0633 9.43888C17.4559 8.88425 17.669 8.20211 17.669 7.5C17.669 6.79789 17.4559 6.11575 17.0633 5.56113C16.6707 5.0065 16.1209 4.61093 15.5006 4.43677C15.1445 4.33681 14.9298 3.93929 15.021 3.54888Z" fill="#767676"/>
<path fill-rule="evenodd" clip-rule="evenodd" d="M14.7774 3.49214C14.8963 2.98323 15.3859 2.63856 15.8982 2.78239C16.8632 3.0533 17.7137 3.66729 18.3187 4.52192C18.9234 5.37624 19.2499 6.42404 19.2499 7.50011C19.2499 8.57618 18.9234 9.62398 18.3187 10.4783C17.7137 11.3329 16.8632 11.9469 15.8982 12.2178C15.3859 12.3617 14.8963 12.017 14.7774 11.5081C14.66 11.0051 14.9313 10.4635 15.4329 10.3226C15.9949 10.1649 16.4977 9.80515 16.8592 9.29454C17.2209 8.78361 17.419 8.1523 17.419 7.50011C17.419 6.84791 17.2209 6.2166 16.8592 5.70568C16.4977 5.19507 15.9949 4.83535 15.4329 4.67758C14.9313 4.53675 14.66 3.99514 14.7774 3.49214ZM15.7631 3.26378C15.5633 3.2077 15.3278 3.33393 15.2643 3.60584C15.1995 3.88366 15.3576 4.1371 15.5681 4.19619C16.2467 4.38672 16.8435 4.81814 17.2673 5.41679C17.6908 6.01512 17.919 6.74809 17.919 7.50011C17.919 8.25213 17.6908 8.9851 17.2673 9.58343C16.8435 10.1821 16.2467 10.6135 15.5681 10.804C15.3576 10.8631 15.1995 11.1166 15.2643 11.3944C15.3278 11.6663 15.5633 11.7925 15.7631 11.7364C16.6113 11.4983 17.3679 10.956 17.9106 10.1894C18.4535 9.4225 18.7499 8.47636 18.7499 7.50011C18.7499 6.52386 18.4535 5.57772 17.9106 4.81081C17.3679 4.04422 16.6113 3.50193 15.7631 3.26378Z" fill="#767676"/>
</svg>
