<svg width="100%" height="100%" viewBox="0 0 30 36" fill="none" xmlns="http://www.w3.org/2000/svg">
<path d="M30 14.7273C30 26.1818 15 36 15 36C15 36 0 26.1818 0 14.7273C5.92805e-08 10.8214 1.58035 7.07542 4.3934 4.31352C7.20644 1.55162 11.0218 0 15 0C18.9782 0 22.7936 1.55162 25.6066 4.31352C28.4196 7.07542 30 10.8214 30 14.7273Z" fill="#8D34FF"/>
<path d="M15 19.6363C17.7614 19.6363 20 17.4384 20 14.7272C20 12.016 17.7614 9.81812 15 9.81812C12.2386 9.81812 10 12.016 10 14.7272C10 17.4384 12.2386 19.6363 15 19.6363Z" fill="white"/>
</svg>
