<svg width="100%" height="100%" viewBox="0 0 24 24" fill="none" xmlns="http://www.w3.org/2000/svg">
<path fill-rule="evenodd" clip-rule="evenodd" d="M16.5 20C15.9477 20 15.5 19.6194 15.5 19.15L15.5 3.85C15.5 3.38056 15.9477 3 16.5 3C17.0523 3 17.5 3.38056 17.5 3.85L17.5 19.15C17.5 19.6194 17.0523 20 16.5 20Z" fill="#505050"/>
<path fill-rule="evenodd" clip-rule="evenodd" d="M7.5 3C8.05229 3 8.5 3.38056 8.5 3.85L8.5 19.15C8.5 19.6194 8.05228 20 7.5 20C6.94771 20 6.5 19.6194 6.5 19.15L6.5 3.85C6.5 3.38056 6.94772 3 7.5 3Z" fill="#505050"/>
<path fill-rule="evenodd" clip-rule="evenodd" d="M3.25647 15.3143C3.62893 14.8952 4.25996 14.8952 4.63242 15.3143L7.5 18.5403L10.3676 15.3143C10.74 14.8952 11.3711 14.8952 11.7435 15.3143C12.0855 15.699 12.0855 16.301 11.7435 16.6857L8.18797 20.6857C7.81551 21.1048 7.18449 21.1048 6.81203 20.6857L3.25647 16.6857C2.91451 16.301 2.91451 15.699 3.25647 15.3143ZM7.3298 19.763L7.5 19.9545L7.6702 19.763C7.6162 19.7826 7.55868 19.7929 7.5 19.7929C7.44132 19.7929 7.3838 19.7826 7.3298 19.763ZM7.55943 20.0214L7.55936 20.0213L7.55943 20.0214Z" fill="#505050"/>
<path fill-rule="evenodd" clip-rule="evenodd" d="M20.7435 7.68574C20.3711 8.10475 19.74 8.10475 19.3676 7.68574L16.5 4.45971L13.6324 7.68573C13.26 8.10475 12.6289 8.10475 12.2565 7.68573C11.9145 7.30103 11.9145 6.69897 12.2565 6.31426L15.812 2.31426C16.1845 1.89524 16.8155 1.89525 17.188 2.31426L20.7435 6.31426C21.0855 6.69897 21.0855 7.30103 20.7435 7.68574ZM16.6702 3.23696L16.5 3.04549L16.3298 3.23696C16.3838 3.21741 16.4413 3.20711 16.5 3.20711C16.5587 3.20711 16.6162 3.21742 16.6702 3.23696ZM16.4406 2.97863L16.4406 2.97871L16.4406 2.97863Z" fill="#505050"/>
</svg>
