<svg width="100%" height="100%" viewBox="0 0 24 24" fill="none" xmlns="http://www.w3.org/2000/svg">
<path fill-rule="evenodd" clip-rule="evenodd" d="M2.25 6C2.25 5.58579 2.58579 5.25 3 5.25H21C21.4142 5.25 21.75 5.58579 21.75 6C21.75 6.41421 21.4142 6.75 21 6.75H3C2.58579 6.75 2.25 6.41421 2.25 6Z" fill="#A8A8A8"/>
<path fill-rule="evenodd" clip-rule="evenodd" d="M10 2.75C9.66848 2.75 9.35054 2.8817 9.11612 3.11612C8.8817 3.35054 8.75 3.66848 8.75 4V6C8.75 6.41421 8.41421 6.75 8 6.75C7.58579 6.75 7.25 6.41421 7.25 6V4C7.25 3.27065 7.53973 2.57118 8.05546 2.05546C8.57118 1.53973 9.27065 1.25 10 1.25H14C14.7293 1.25 15.4288 1.53973 15.9445 2.05546C16.4603 2.57118 16.75 3.27065 16.75 4V6C16.75 6.41421 16.4142 6.75 16 6.75C15.5858 6.75 15.25 6.41421 15.25 6V4C15.25 3.66848 15.1183 3.35054 14.8839 3.11612C14.6495 2.8817 14.3315 2.75 14 2.75H10ZM5 5.25C5.41421 5.25 5.75 5.58579 5.75 6V20C5.75 20.3315 5.8817 20.6495 6.11612 20.8839C6.35054 21.1183 6.66848 21.25 7 21.25H17C17.3315 21.25 17.6495 21.1183 17.8839 20.8839C18.1183 20.6495 18.25 20.3315 18.25 20V6C18.25 5.58579 18.5858 5.25 19 5.25C19.4142 5.25 19.75 5.58579 19.75 6V20C19.75 20.7293 19.4603 21.4288 18.9445 21.9445C18.4288 22.4603 17.7293 22.75 17 22.75H7C6.27065 22.75 5.57118 22.4603 5.05546 21.9445C4.53973 21.4288 4.25 20.7293 4.25 20V6C4.25 5.58579 4.58579 5.25 5 5.25Z" fill="#A8A8A8"/>
<path fill-rule="evenodd" clip-rule="evenodd" d="M10 10.25C10.4142 10.25 10.75 10.5858 10.75 11V17C10.75 17.4142 10.4142 17.75 10 17.75C9.58579 17.75 9.25 17.4142 9.25 17V11C9.25 10.5858 9.58579 10.25 10 10.25Z" fill="#A8A8A8"/>
<path fill-rule="evenodd" clip-rule="evenodd" d="M14 10.25C14.4142 10.25 14.75 10.5858 14.75 11V17C14.75 17.4142 14.4142 17.75 14 17.75C13.5858 17.75 13.25 17.4142 13.25 17V11C13.25 10.5858 13.5858 10.25 14 10.25Z" fill="#A8A8A8"/>
</svg>
