<svg width="100%" height="100%" viewBox="0 0 24 24" fill="none" xmlns="http://www.w3.org/2000/svg">
<rect width="100%" height="100%" rx="12" fill="#363636"/>
<path fill-rule="evenodd" clip-rule="evenodd" d="M17.9429 6.05727C18.4636 6.57797 18.4636 7.42219 17.9429 7.94289L7.94289 17.9429C7.42219 18.4636 6.57797 18.4636 6.05727 17.9429C5.53657 17.4222 5.53657 16.578 6.05727 16.0573L16.0573 6.05727C16.578 5.53657 17.4222 5.53657 17.9429 6.05727Z" fill="white"/>
<path fill-rule="evenodd" clip-rule="evenodd" d="M6.05727 6.05727C6.57797 5.53657 7.42219 5.53657 7.94289 6.05727L17.9429 16.0573C18.4636 16.578 18.4636 17.4222 17.9429 17.9429C17.4222 18.4636 16.578 18.4636 16.0573 17.9429L6.05727 7.94289C5.53657 7.42219 5.53657 6.57797 6.05727 6.05727Z" fill="white"/>
</svg>
